<svg width="480" height="360" viewBox="0 0 480 360" xmlns="http://www.w3.org/2000/svg">
  <defs>
    <linearGradient id="bgGrad" x1="0" y1="0" x2="480" y2="360" gradientUnits="userSpaceOnUse">
      <stop offset="0" stop-color="#12151F"/>
      <stop offset="1" stop-color="#0B0D14"/>
    </linearGradient>
    <pattern id="dots" width="28" height="28" patternUnits="userSpaceOnUse">
      <circle cx="1.4" cy="1.4" r="1.4" fill="#262B3D" opacity="0.55"/>
    </pattern>
    <radialGradient id="glow9" cx="50%" cy="50%" r="50%"><stop offset="0" stop-color="#5B4FF0" stop-opacity="0.22"/><stop offset="1" stop-color="#5B4FF0" stop-opacity="0"/></radialGradient>
  </defs>
  <rect width="480" height="360" fill="url(#bgGrad)"/>
  <rect width="480" height="360" fill="url(#dots)"/>
<circle cx="240" cy="160" r="200" fill="url(#glow9)"/><circle cx="240" cy="160" r="70" fill="none" stroke="#262B3D" stroke-width="2"/><line x1="240" y1="160" x2="240" y2="114" stroke="#A3A9C7" stroke-width="3" stroke-linecap="round"/><line x1="240" y1="160" x2="270" y2="176" stroke="#FF6B57" stroke-width="3" stroke-linecap="round"/><circle cx="240" cy="160" r="5" fill="#A3A9C7"/><line x1="304.0" y1="160.0" x2="310.0" y2="160.0" stroke="#6E7495" stroke-width="2" opacity="0.5"/><line x1="295.4" y1="192.0" x2="300.6" y2="195.0" stroke="#6E7495" stroke-width="2" opacity="0.5"/><line x1="272.0" y1="215.4" x2="275.0" y2="220.6" stroke="#6E7495" stroke-width="2" opacity="0.5"/><line x1="240.0" y1="224.0" x2="240.0" y2="230.0" stroke="#6E7495" stroke-width="2" opacity="0.5"/><line x1="208.0" y1="215.4" x2="205.0" y2="220.6" stroke="#6E7495" stroke-width="2" opacity="0.5"/><line x1="184.6" y1="192.0" x2="179.4" y2="195.0" stroke="#6E7495" stroke-width="2" opacity="0.5"/><line x1="176.0" y1="160.0" x2="170.0" y2="160.0" stroke="#6E7495" stroke-width="2" opacity="0.5"/><line x1="184.6" y1="128.0" x2="179.4" y2="125.0" stroke="#6E7495" stroke-width="2" opacity="0.5"/><line x1="208.0" y1="104.6" x2="205.0" y2="99.4" stroke="#6E7495" stroke-width="2" opacity="0.5"/><line x1="240.0" y1="96.0" x2="240.0" y2="90.0" stroke="#6E7495" stroke-width="2" opacity="0.5"/><line x1="272.0" y1="104.6" x2="275.0" y2="99.4" stroke="#6E7495" stroke-width="2" opacity="0.5"/><line x1="295.4" y1="128.0" x2="300.6" y2="125.0" stroke="#6E7495" stroke-width="2" opacity="0.5"/></svg>
