<svg width="480" height="360" viewBox="0 0 480 360" xmlns="http://www.w3.org/2000/svg">
  <defs>
    <linearGradient id="bgGrad" x1="0" y1="0" x2="480" y2="360" gradientUnits="userSpaceOnUse">
      <stop offset="0" stop-color="#12151F"/>
      <stop offset="1" stop-color="#0B0D14"/>
    </linearGradient>
    <pattern id="dots" width="28" height="28" patternUnits="userSpaceOnUse">
      <circle cx="1.4" cy="1.4" r="1.4" fill="#262B3D" opacity="0.55"/>
    </pattern>
    <radialGradient id="glow11" cx="50%" cy="50%" r="50%"><stop offset="0" stop-color="#5B4FF0" stop-opacity="0.22"/><stop offset="1" stop-color="#5B4FF0" stop-opacity="0"/></radialGradient><radialGradient id="glow12" cx="50%" cy="50%" r="50%"><stop offset="0" stop-color="#FF6B57" stop-opacity="0.14"/><stop offset="1" stop-color="#FF6B57" stop-opacity="0"/></radialGradient>
  </defs>
  <rect width="480" height="360" fill="url(#bgGrad)"/>
  <rect width="480" height="360" fill="url(#dots)"/>
<circle cx="240" cy="160" r="210" fill="url(#glow11)"/><circle cx="320" cy="220" r="140" fill="url(#glow12)"/><path d="M90,90 C170,90 180,160 240,160" fill="none" stroke="#A199FF" stroke-width="2.5" stroke-linecap="round" opacity="0.8"/><circle cx="90" cy="90" r="5" fill="#A199FF"/><path d="M90,160 C170,160 180,160 240,160" fill="none" stroke="#5B4FF0" stroke-width="2.5" stroke-linecap="round" opacity="0.8"/><circle cx="90" cy="160" r="5" fill="#5B4FF0"/><path d="M90,230 C170,230 180,160 240,160" fill="none" stroke="#8175FC" stroke-width="2.5" stroke-linecap="round" opacity="0.8"/><circle cx="90" cy="230" r="5" fill="#8175FC"/><circle cx="240" cy="160" r="12" fill="#5B4FF0"/><path d="M240,160 C280,160 330,160 370,160" fill="none" stroke="#FF6B57" stroke-width="3.5" stroke-linecap="round" opacity="1"/><circle cx="374" cy="160" r="7" fill="#FF6B57"/></svg>
