<svg width="900" height="640" viewBox="0 0 900 640" xmlns="http://www.w3.org/2000/svg">
  <defs>
    <linearGradient id="bgGrad" x1="0" y1="0" x2="900" y2="640" gradientUnits="userSpaceOnUse">
      <stop offset="0" stop-color="#12151F"/>
      <stop offset="1" stop-color="#0B0D14"/>
    </linearGradient>
    <pattern id="dots" width="28" height="28" patternUnits="userSpaceOnUse">
      <circle cx="1.4" cy="1.4" r="1.4" fill="#262B3D" opacity="0.55"/>
    </pattern>
    
  <radialGradient id="glow3" cx="50%" cy="50%" r="50%"><stop offset="0" stop-color="#5B4FF0" stop-opacity="0.18"/><stop offset="1" stop-color="#5B4FF0" stop-opacity="0"/></radialGradient></defs>
  <rect width="900" height="640" fill="url(#bgGrad)"/>
  <rect width="900" height="640" fill="url(#dots)"/>
<circle cx="700" cy="160" r="300" fill="url(#glow3)"/><rect x="100" y="100" width="180" height="440" rx="16" fill="#1A1E2B" stroke="#262B3D" stroke-width="1.5"/><circle cx="134" cy="148" r="3" fill="#6E7495"/><rect x="150" y="144" width="92" height="7" rx="3.5" fill="#6E7495" opacity="0.5"/><rect x="118" y="176" width="144" height="32" rx="8" fill="#5B4FF0" opacity="0.16"/><circle cx="134" cy="192" r="3" fill="#8175FC"/><rect x="150" y="188" width="100" height="7" rx="3.5" fill="#A3A9C7" opacity="1"/><circle cx="134" cy="236" r="3" fill="#6E7495"/><rect x="150" y="232" width="92" height="7" rx="3.5" fill="#6E7495" opacity="0.5"/><circle cx="134" cy="280" r="3" fill="#6E7495"/><rect x="150" y="276" width="92" height="7" rx="3.5" fill="#6E7495" opacity="0.5"/><circle cx="134" cy="324" r="3" fill="#6E7495"/><rect x="150" y="320" width="92" height="7" rx="3.5" fill="#6E7495" opacity="0.5"/><circle cx="134" cy="368" r="3" fill="#6E7495"/><rect x="150" y="364" width="92" height="7" rx="3.5" fill="#6E7495" opacity="0.5"/><circle cx="134" cy="412" r="3" fill="#6E7495"/><rect x="150" y="408" width="92" height="7" rx="3.5" fill="#6E7495" opacity="0.5"/><circle cx="134" cy="456" r="3" fill="#6E7495"/><rect x="150" y="452" width="92" height="7" rx="3.5" fill="#6E7495" opacity="0.5"/><rect x="310" y="100" width="160" height="440" rx="16" fill="#1A1E2B" fill-opacity="0.9" stroke="#262B3D" stroke-width="1.5"/><circle cx="336" cy="132" r="6" fill="#A199FF"/><rect x="352" y="126" width="70" height="10" rx="5" fill="#A3A9C7" opacity="0.7"/><rect x="330" y="168" width="120" height="7" rx="3.5" fill="#6E7495" opacity="0.5"/><rect x="330" y="188" width="96" height="7" rx="3.5" fill="#6E7495" opacity="0.5"/><rect x="330" y="208" width="132" height="7" rx="3.5" fill="#6E7495" opacity="0.5"/><rect x="330" y="228" width="80" height="7" rx="3.5" fill="#6E7495" opacity="0.5"/><rect x="330" y="248" width="110" height="7" rx="3.5" fill="#6E7495" opacity="0.5"/><rect x="330" y="268" width="70" height="7" rx="3.5" fill="#6E7495" opacity="0.5"/><rect x="490" y="100" width="160" height="440" rx="16" fill="#1A1E2B" fill-opacity="0.9" stroke="#262B3D" stroke-width="1.5"/><circle cx="516" cy="132" r="6" fill="#5B4FF0"/><rect x="532" y="126" width="70" height="10" rx="5" fill="#A3A9C7" opacity="0.7"/><rect x="510" y="168" width="120" height="7" rx="3.5" fill="#6E7495" opacity="0.5"/><rect x="510" y="188" width="96" height="7" rx="3.5" fill="#6E7495" opacity="0.5"/><rect x="510" y="208" width="132" height="7" rx="3.5" fill="#6E7495" opacity="0.5"/><rect x="510" y="228" width="80" height="7" rx="3.5" fill="#6E7495" opacity="0.5"/><rect x="510" y="248" width="110" height="7" rx="3.5" fill="#6E7495" opacity="0.5"/><rect x="510" y="268" width="70" height="7" rx="3.5" fill="#6E7495" opacity="0.5"/><rect x="670" y="100" width="160" height="440" rx="16" fill="#1A1E2B" fill-opacity="0.9" stroke="#FF6B57" stroke-width="1.5"/><circle cx="696" cy="132" r="6" fill="#FF6B57"/><rect x="712" y="126" width="70" height="10" rx="5" fill="#A3A9C7" opacity="0.7"/><rect x="690" y="168" width="120" height="7" rx="3.5" fill="#6E7495" opacity="0.5"/><rect x="690" y="188" width="96" height="7" rx="3.5" fill="#6E7495" opacity="0.5"/><rect x="690" y="208" width="132" height="7" rx="3.5" fill="#6E7495" opacity="0.5"/><rect x="690" y="228" width="80" height="7" rx="3.5" fill="#6E7495" opacity="0.5"/><rect x="690" y="248" width="110" height="7" rx="3.5" fill="#6E7495" opacity="0.5"/><rect x="690" y="268" width="70" height="7" rx="3.5" fill="#6E7495" opacity="0.5"/><rect x="690" y="296" width="120" height="28" rx="8" fill="#FF6B57" opacity="0.18"/><rect x="704" y="306" width="88" height="8" rx="4" fill="#FF6B57"/></svg>
