<svg width="1200" height="800" viewBox="0 0 1200 800" xmlns="http://www.w3.org/2000/svg">
  <defs>
    <linearGradient id="bgGrad" x1="0" y1="0" x2="1200" y2="800" gradientUnits="userSpaceOnUse">
      <stop offset="0" stop-color="#12151F"/>
      <stop offset="1" stop-color="#0B0D14"/>
    </linearGradient>
    <pattern id="dots" width="28" height="28" patternUnits="userSpaceOnUse">
      <circle cx="1.4" cy="1.4" r="1.4" fill="#262B3D" opacity="0.55"/>
    </pattern>
    <radialGradient id="glow1" cx="50%" cy="50%" r="50%"><stop offset="0" stop-color="#5B4FF0" stop-opacity="0.22"/><stop offset="1" stop-color="#5B4FF0" stop-opacity="0"/></radialGradient><radialGradient id="glow2" cx="50%" cy="50%" r="50%"><stop offset="0" stop-color="#FF6B57" stop-opacity="0.16"/><stop offset="1" stop-color="#FF6B57" stop-opacity="0"/></radialGradient>
  </defs>
  <rect width="1200" height="800" fill="url(#bgGrad)"/>
  <rect width="1200" height="800" fill="url(#dots)"/>
<circle cx="920" cy="260" r="420" fill="url(#glow1)"/><circle cx="880" cy="560" r="320" fill="url(#glow2)"/><path d="M80,150 C300,150 460,400 620,400" fill="none" stroke="#A199FF" stroke-width="2.5" stroke-linecap="round" opacity="0.85"/><circle cx="80" cy="150" r="5" fill="#A199FF"/><path d="M80,290 C300,290 460,400 620,400" fill="none" stroke="#8175FC" stroke-width="2.5" stroke-linecap="round" opacity="0.85"/><circle cx="80" cy="290" r="5" fill="#8175FC"/><path d="M80,430 C300,430 460,400 620,400" fill="none" stroke="#5B4FF0" stroke-width="2.5" stroke-linecap="round" opacity="0.85"/><circle cx="80" cy="430" r="5" fill="#5B4FF0"/><path d="M80,570 C300,570 460,400 620,400" fill="none" stroke="#8175FC" stroke-width="2.5" stroke-linecap="round" opacity="0.85"/><circle cx="80" cy="570" r="5" fill="#8175FC"/><path d="M80,690 C300,690 460,400 620,400" fill="none" stroke="#A199FF" stroke-width="2.5" stroke-linecap="round" opacity="0.85"/><circle cx="80" cy="690" r="5" fill="#A199FF"/><rect x="34" y="139" width="34" height="22" rx="11" fill="#1A1E2B" stroke="#262B3D" stroke-width="1.5"/><circle cx="51" cy="150" r="4" fill="#A199FF"/><rect x="34" y="279" width="34" height="22" rx="11" fill="#1A1E2B" stroke="#262B3D" stroke-width="1.5"/><circle cx="51" cy="290" r="4" fill="#8175FC"/><rect x="34" y="419" width="34" height="22" rx="11" fill="#1A1E2B" stroke="#262B3D" stroke-width="1.5"/><circle cx="51" cy="430" r="4" fill="#5B4FF0"/><rect x="34" y="559" width="34" height="22" rx="11" fill="#1A1E2B" stroke="#262B3D" stroke-width="1.5"/><circle cx="51" cy="570" r="4" fill="#8175FC"/><rect x="34" y="679" width="34" height="22" rx="11" fill="#1A1E2B" stroke="#262B3D" stroke-width="1.5"/><circle cx="51" cy="690" r="4" fill="#A199FF"/><circle cx="620" cy="400" r="10" fill="#5B4FF0"/><circle cx="620" cy="400" r="18" fill="none" stroke="#5B4FF0" stroke-width="1.5" opacity="0.4"/><path d="M620,400 C680,400 720,400 760,400" fill="none" stroke="#FF6B57" stroke-width="3.5" stroke-linecap="round" opacity="1"/><circle cx="760" cy="400" r="6" fill="#FF6B57"/><rect x="800" y="260" width="340" height="280" rx="18" fill="#1A1E2B" fill-opacity="0.9" stroke="#262B3D" stroke-width="1.5"/><rect x="824" y="292" width="120" height="10" rx="5" fill="#A3A9C7" opacity="0.7"/><rect x="824" y="316" width="280" height="1" fill="#262B3D"/><rect x="824" y="344" width="260" height="7" rx="3.5" fill="#6E7495" opacity="0.5"/><rect x="824" y="376" width="220" height="7" rx="3.5" fill="#FF6B57" opacity="1"/><circle cx="1072" cy="379.5" r="4" fill="#FF6B57"/><rect x="824" y="408" width="260" height="7" rx="3.5" fill="#6E7495" opacity="0.5"/><rect x="824" y="460" width="292" height="56" rx="12" fill="#12151F" stroke="#262B3D"/><rect x="840" y="480" width="140" height="6" rx="3" fill="#6E7495" opacity="0.6"/><rect x="840" y="494" width="90" height="6" rx="3" fill="#6E7495" opacity="0.4"/></svg>
