<svg width="900" height="560" viewBox="0 0 900 560" xmlns="http://www.w3.org/2000/svg">
  <defs>
    <linearGradient id="bgGrad" x1="0" y1="0" x2="900" y2="560" gradientUnits="userSpaceOnUse">
      <stop offset="0" stop-color="#12151F"/>
      <stop offset="1" stop-color="#0B0D14"/>
    </linearGradient>
    <pattern id="dots" width="28" height="28" patternUnits="userSpaceOnUse">
      <circle cx="1.4" cy="1.4" r="1.4" fill="#262B3D" opacity="0.55"/>
    </pattern>
    
  </defs>
  <rect width="900" height="560" fill="url(#bgGrad)"/>
  <rect width="900" height="560" fill="url(#dots)"/>
<rect x="340" y="50" width="220" height="60" rx="14" fill="#1A1E2B" fill-opacity="0.9" stroke="#262B3D" stroke-width="1.5"/><rect x="362" y="72" width="176" height="7" rx="3.5" fill="#A3A9C7" opacity="0.7"/><rect x="362" y="88" width="120" height="7" rx="3.5" fill="#6E7495" opacity="0.5"/><path d="M450,110 C450,160 220,140 220,190" fill="none" stroke="#A199FF" stroke-width="2" stroke-linecap="round" opacity="0.7"/><rect x="140" y="190" width="200" height="260" rx="16" fill="#1A1E2B" fill-opacity="0.9" stroke="#262B3D" stroke-width="1.5"/><circle cx="166" cy="222" r="5" fill="#A199FF"/><rect x="182" y="216" width="60" height="8" rx="4" fill="#A3A9C7" opacity="0.7"/><rect x="160" y="250" width="150" height="6" rx="3" fill="#6E7495" opacity="0.5"/><rect x="160" y="268" width="120" height="6" rx="3" fill="#6E7495" opacity="0.5"/><rect x="160" y="286" width="160" height="6" rx="3" fill="#6E7495" opacity="0.5"/><rect x="160" y="304" width="90" height="6" rx="3" fill="#6E7495" opacity="0.5"/><path d="M450,110 C450,160 530,140 530,190" fill="none" stroke="#5B4FF0" stroke-width="2" stroke-linecap="round" opacity="0.7"/><rect x="450" y="190" width="200" height="260" rx="16" fill="#1A1E2B" fill-opacity="0.9" stroke="#262B3D" stroke-width="1.5"/><circle cx="476" cy="222" r="5" fill="#5B4FF0"/><rect x="492" y="216" width="60" height="8" rx="4" fill="#A3A9C7" opacity="0.7"/><rect x="470" y="250" width="150" height="6" rx="3" fill="#6E7495" opacity="0.5"/><rect x="470" y="268" width="120" height="6" rx="3" fill="#6E7495" opacity="0.5"/><rect x="470" y="286" width="160" height="6" rx="3" fill="#6E7495" opacity="0.5"/><rect x="470" y="304" width="90" height="6" rx="3" fill="#6E7495" opacity="0.5"/><path d="M450,110 C450,160 700,140 700,190" fill="none" stroke="#FF6B57" stroke-width="2" stroke-linecap="round" opacity="0.7"/><rect x="620" y="190" width="200" height="260" rx="16" fill="#1A1E2B" fill-opacity="0.9" stroke="#FF6B57" stroke-width="1.5"/><circle cx="646" cy="222" r="5" fill="#FF6B57"/><rect x="662" y="216" width="60" height="8" rx="4" fill="#A3A9C7" opacity="0.7"/><rect x="640" y="250" width="150" height="6" rx="3" fill="#6E7495" opacity="0.5"/><rect x="640" y="268" width="120" height="6" rx="3" fill="#6E7495" opacity="0.5"/><rect x="640" y="286" width="160" height="6" rx="3" fill="#6E7495" opacity="0.5"/><rect x="640" y="304" width="90" height="6" rx="3" fill="#6E7495" opacity="0.5"/><circle cx="796" cy="212" r="12" fill="#FF6B57"/><path d="M790,212 l4,4 l8,-8" stroke="#0B0D14" stroke-width="2" fill="none" stroke-linecap="round" stroke-linejoin="round"/></svg>
