<svg width="900" height="620" viewBox="0 0 900 620" xmlns="http://www.w3.org/2000/svg">
  <defs>
    <linearGradient id="bgGrad" x1="0" y1="0" x2="900" y2="620" gradientUnits="userSpaceOnUse">
      <stop offset="0" stop-color="#12151F"/>
      <stop offset="1" stop-color="#0B0D14"/>
    </linearGradient>
    <pattern id="dots" width="28" height="28" patternUnits="userSpaceOnUse">
      <circle cx="1.4" cy="1.4" r="1.4" fill="#262B3D" opacity="0.55"/>
    </pattern>
    
  </defs>
  <rect width="900" height="620" fill="url(#bgGrad)"/>
  <rect width="900" height="620" fill="url(#dots)"/>
<rect x="80" y="80" width="340" height="220" rx="16" fill="#1A1E2B" fill-opacity="0.9" stroke="#262B3D" stroke-width="1.5"/><rect x="98" y="98" width="80" height="8" rx="4" fill="#A3A9C7" opacity="0.7"/><rect x="98" y="120" width="280" height="6" rx="3" fill="#6E7495" opacity="0.45"/><rect x="98" y="136" width="260" height="6" rx="3" fill="#6E7495" opacity="0.45"/><rect x="98" y="152" width="240" height="6" rx="3" fill="#6E7495" opacity="0.45"/><rect x="98" y="168" width="220" height="6" rx="3" fill="#6E7495" opacity="0.45"/><rect x="440" y="80" width="380" height="140" rx="16" fill="#1A1E2B" fill-opacity="0.9" stroke="#262B3D" stroke-width="1.5"/><rect x="458" y="98" width="80" height="8" rx="4" fill="#A3A9C7" opacity="0.7"/><rect x="458" y="120" width="320" height="6" rx="3" fill="#6E7495" opacity="0.45"/><rect x="458" y="136" width="300" height="6" rx="3" fill="#6E7495" opacity="0.45"/><rect x="440" y="240" width="180" height="180" rx="16" fill="#1A1E2B" fill-opacity="0.9" stroke="#FF6B57" stroke-width="1.5"/><rect x="458" y="258" width="80" height="8" rx="4" fill="#A3A9C7" opacity="0.7"/><circle cx="530.0" cy="340.0" r="14" fill="#FF6B57"/><rect x="640" y="240" width="180" height="180" rx="16" fill="#1A1E2B" fill-opacity="0.9" stroke="#262B3D" stroke-width="1.5"/><rect x="658" y="258" width="80" height="8" rx="4" fill="#A3A9C7" opacity="0.7"/><rect x="658" y="280" width="120" height="6" rx="3" fill="#6E7495" opacity="0.45"/><rect x="658" y="296" width="100" height="6" rx="3" fill="#6E7495" opacity="0.45"/><rect x="658" y="312" width="80" height="6" rx="3" fill="#6E7495" opacity="0.45"/><rect x="80" y="320" width="340" height="220" rx="16" fill="#1A1E2B" fill-opacity="0.9" stroke="#262B3D" stroke-width="1.5"/><rect x="98" y="338" width="80" height="8" rx="4" fill="#A3A9C7" opacity="0.7"/><rect x="98" y="360" width="280" height="6" rx="3" fill="#6E7495" opacity="0.45"/><rect x="98" y="376" width="260" height="6" rx="3" fill="#6E7495" opacity="0.45"/><rect x="98" y="392" width="240" height="6" rx="3" fill="#6E7495" opacity="0.45"/><rect x="440" y="440" width="380" height="140" rx="16" fill="#1A1E2B" fill-opacity="0.9" stroke="#262B3D" stroke-width="1.5"/><rect x="458" y="458" width="80" height="8" rx="4" fill="#A3A9C7" opacity="0.7"/><rect x="458" y="480" width="320" height="6" rx="3" fill="#6E7495" opacity="0.45"/><rect x="458" y="496" width="300" height="6" rx="3" fill="#6E7495" opacity="0.45"/></svg>
