<svg xmlns="http://www.w3.org/2000/svg" width="1476" height="72" viewBox="0 0 1476 72">
  <style>.pf-icon{fill:none;stroke:#A3A9C7;stroke-width:2;stroke-linecap:round;stroke-linejoin:round;}.pf-icon-solid{fill:#A3A9C7;stroke:none;}</style>
  <defs>
    <symbol id="icon-billing" viewBox="0 0 24 24"><rect class="pf-icon" x="3" y="6" width="18" height="13" rx="2"/><line class="pf-icon" x1="3" y1="10" x2="21" y2="10"/><rect class="pf-icon-solid" x="6" y="14" width="5" height="2" rx="1"/></symbol>
    <symbol id="icon-notifications" viewBox="0 0 24 24"><path class="pf-icon" d="M6 10a6 6 0 0 1 12 0c0 4 1.5 5.5 1.5 5.5H4.5S6 14 6 10Z"/><path class="pf-icon" d="M10 19a2 2 0 0 0 4 0"/></symbol>
    <symbol id="icon-export" viewBox="0 0 24 24"><path class="pf-icon" d="M12 15V4M8 8l4-4 4 4"/><rect class="pf-icon" x="4.5" y="15" width="15" height="4.5" rx="1.5"/></symbol>
    <symbol id="icon-history" viewBox="0 0 24 24"><circle class="pf-icon" cx="12" cy="13" r="8"/><path class="pf-icon" d="M12 9v4l3 2"/><path class="pf-icon" d="M7 4.5 4.5 6"/></symbol>
    <symbol id="icon-theme" viewBox="0 0 24 24"><circle class="pf-icon" cx="12" cy="12" r="8"/><path class="pf-icon-solid" d="M12 4a8 8 0 0 1 0 16Z"/></symbol>
    <symbol id="icon-api" viewBox="0 0 24 24"><path class="pf-icon" d="M8 4 4 12l4 8M16 4l4 8-4 8"/></symbol>
    <symbol id="icon-security" viewBox="0 0 24 24"><path class="pf-icon" d="M12 3l7 3v6c0 4.5-3 7.5-7 9-4-1.5-7-4.5-7-9V6Z"/><path class="pf-icon" d="M9.5 12l1.8 1.8L15 10.2"/></symbol>
    <symbol id="icon-analytics" viewBox="0 0 24 24"><path class="pf-icon" d="M4 20V10M11 20V4M18 20v-7"/></symbol>
    <symbol id="icon-dashboard" viewBox="0 0 24 24"><rect class="pf-icon" x="3.5" y="3.5" width="8" height="8" rx="1.5"/><rect class="pf-icon" x="12.5" y="3.5" width="8" height="5" rx="1.5"/><rect class="pf-icon" x="12.5" y="11.5" width="8" height="9" rx="1.5"/><rect class="pf-icon" x="3.5" y="14.5" width="8" height="6" rx="1.5"/></symbol>
    <symbol id="icon-keyboard" viewBox="0 0 24 24"><rect class="pf-icon" x="2.5" y="6" width="19" height="12" rx="2"/><path class="pf-icon" d="M6 10h.01M10 10h.01M14 10h.01M18 10h.01M7 14h10"/></symbol>
    <symbol id="icon-voice" viewBox="0 0 24 24"><path class="pf-icon" d="M12 3a3.5 3.5 0 0 1 3.5 3.5v5a3.5 3.5 0 0 1-7 0v-5A3.5 3.5 0 0 1 12 3Z"/><path class="pf-icon" d="M6 12a6 6 0 0 0 12 0M12 18v3"/></symbol>
    <symbol id="icon-microphone" viewBox="0 0 24 24"><path class="pf-icon" d="M12 3a3 3 0 0 1 3 3v5a3 3 0 0 1-6 0V6a3 3 0 0 1 3-3Z"/><path class="pf-icon" d="M5.5 11a6.5 6.5 0 0 0 13 0"/></symbol>
    <symbol id="icon-image" viewBox="0 0 24 24"><rect class="pf-icon" x="3.5" y="4.5" width="17" height="15" rx="2"/><circle class="pf-icon" cx="9" cy="10" r="1.6"/><path class="pf-icon" d="M20 15l-5-4-4 3-3-2-4.5 4"/></symbol>
    <symbol id="icon-file" viewBox="0 0 24 24"><path class="pf-icon" d="M6 3h8l5 5v13H6Z"/><path class="pf-icon" d="M14 3v5h5"/></symbol>
    <symbol id="icon-code" viewBox="0 0 24 24"><path class="pf-icon" d="M9 8 4.5 12 9 16M15 8l4.5 4-4.5 4"/></symbol>
    <symbol id="icon-markdown" viewBox="0 0 24 24"><rect class="pf-icon" x="3" y="5" width="18" height="14" rx="2"/><path class="pf-icon" d="M6.5 15V9l3 3.5L12.5 9v6M15.5 9v4M14 11.5l1.8 2 1.7-2"/></symbol>
    <symbol id="icon-database" viewBox="0 0 24 24"><ellipse class="pf-icon" cx="12" cy="6" rx="7" ry="3"/><path class="pf-icon" d="M5 6v12c0 1.7 3.1 3 7 3s7-1.3 7-3V6"/><path class="pf-icon" d="M5 12c0 1.7 3.1 3 7 3s7-1.3 7-3"/></symbol>
    <symbol id="icon-cloud" viewBox="0 0 24 24"><path class="pf-icon" d="M7 18a4.5 4.5 0 0 1-.5-9 5.5 5.5 0 0 1 10.7-1.6A4 4 0 0 1 17 18Z"/></symbol>
  </defs>
  <g>
    <use href="#icon-billing" x="0" y="24" width="24" height="24"/>
    <use href="#icon-notifications" x="82" y="24" width="24" height="24"/>
    <use href="#icon-export" x="164" y="24" width="24" height="24"/>
    <use href="#icon-history" x="246" y="24" width="24" height="24"/>
    <use href="#icon-theme" x="328" y="24" width="24" height="24"/>
    <use href="#icon-api" x="410" y="24" width="24" height="24"/>
    <use href="#icon-security" x="492" y="24" width="24" height="24"/>
    <use href="#icon-analytics" x="574" y="24" width="24" height="24"/>
    <use href="#icon-dashboard" x="656" y="24" width="24" height="24"/>
    <use href="#icon-keyboard" x="738" y="24" width="24" height="24"/>
    <use href="#icon-voice" x="820" y="24" width="24" height="24"/>
    <use href="#icon-microphone" x="902" y="24" width="24" height="24"/>
    <use href="#icon-image" x="984" y="24" width="24" height="24"/>
    <use href="#icon-file" x="1066" y="24" width="24" height="24"/>
    <use href="#icon-code" x="1148" y="24" width="24" height="24"/>
    <use href="#icon-markdown" x="1230" y="24" width="24" height="24"/>
    <use href="#icon-database" x="1312" y="24" width="24" height="24"/>
    <use href="#icon-cloud" x="1394" y="24" width="24" height="24"/>
  </g>
</svg>
