<svg width="800" height="600" viewBox="0 0 800 600" xmlns="http://www.w3.org/2000/svg">
  <defs>
    <linearGradient id="bgGrad" x1="0" y1="0" x2="800" y2="600" gradientUnits="userSpaceOnUse">
      <stop offset="0" stop-color="#12151F"/>
      <stop offset="1" stop-color="#0B0D14"/>
    </linearGradient>
    <pattern id="dots" width="28" height="28" patternUnits="userSpaceOnUse">
      <circle cx="1.4" cy="1.4" r="1.4" fill="#262B3D" opacity="0.55"/>
    </pattern>
    <radialGradient id="glow4" cx="50%" cy="50%" r="50%"><stop offset="0" stop-color="#5B4FF0" stop-opacity="0.2"/><stop offset="1" stop-color="#5B4FF0" stop-opacity="0"/></radialGradient>
  </defs>
  <rect width="800" height="600" fill="url(#bgGrad)"/>
  <rect width="800" height="600" fill="url(#dots)"/>
<circle cx="400" cy="300" r="260" fill="url(#glow4)"/><rect x="260" y="190" width="220" height="140" rx="16" fill="#1A1E2B" stroke="#A199FF" stroke-width="1.5" opacity="0.5"/><rect x="280" y="214" width="120" height="8" rx="4" fill="#A3A9C7" opacity="0.5"/><rect x="280" y="234" width="160" height="6" rx="3" fill="#6E7495" opacity="0.35"/><rect x="280" y="248" width="100" height="6" rx="3" fill="#6E7495" opacity="0.35"/><rect x="320" y="210" width="220" height="140" rx="16" fill="#1A1E2B" stroke="#8175FC" stroke-width="1.5" opacity="0.75"/><rect x="340" y="234" width="120" height="8" rx="4" fill="#A3A9C7" opacity="0.75"/><rect x="340" y="254" width="160" height="6" rx="3" fill="#6E7495" opacity="0.5249999999999999"/><rect x="340" y="268" width="100" height="6" rx="3" fill="#6E7495" opacity="0.5249999999999999"/><rect x="360" y="260" width="220" height="140" rx="16" fill="#1A1E2B" stroke="#FF6B57" stroke-width="1.5" opacity="1"/><rect x="380" y="284" width="120" height="8" rx="4" fill="#A3A9C7" opacity="1"/><rect x="380" y="304" width="160" height="6" rx="3" fill="#6E7495" opacity="0.7"/><rect x="380" y="318" width="100" height="6" rx="3" fill="#6E7495" opacity="0.7"/></svg>
