<svg width="1200" height="630" viewBox="0 0 1200 630" xmlns="http://www.w3.org/2000/svg">
  <defs>
    <linearGradient id="bgGrad" x1="0" y1="0" x2="1200" y2="630" gradientUnits="userSpaceOnUse">
      <stop offset="0" stop-color="#12151F"/>
      <stop offset="1" stop-color="#0B0D14"/>
    </linearGradient>
    <pattern id="dots" width="28" height="28" patternUnits="userSpaceOnUse">
      <circle cx="1.4" cy="1.4" r="1.4" fill="#262B3D" opacity="0.55"/>
    </pattern>
    <radialGradient id="glow7" cx="50%" cy="50%" r="50%"><stop offset="0" stop-color="#5B4FF0" stop-opacity="0.28"/><stop offset="1" stop-color="#5B4FF0" stop-opacity="0"/></radialGradient><radialGradient id="glow8" cx="50%" cy="50%" r="50%"><stop offset="0" stop-color="#FF6B57" stop-opacity="0.18"/><stop offset="1" stop-color="#FF6B57" stop-opacity="0"/></radialGradient>
  </defs>
  <rect width="1200" height="630" fill="url(#bgGrad)"/>
  <rect width="1200" height="630" fill="url(#dots)"/>
<circle cx="940" cy="140" r="380" fill="url(#glow7)"/><circle cx="900" cy="520" r="300" fill="url(#glow8)"/><path d="M90,276 C120,276 128,290 148,300" fill="none" stroke="#A199FF" stroke-width="4" stroke-linecap="round"/><path d="M90,300 L148,300" fill="none" stroke="#5B4FF0" stroke-width="5" stroke-linecap="round"/><path d="M90,324 C120,324 128,310 148,300" fill="none" stroke="#8175FC" stroke-width="4" stroke-linecap="round"/><path d="M148,300 L180,300" fill="none" stroke="#FF6B57" stroke-width="6" stroke-linecap="round"/><circle cx="186" cy="300" r="8" fill="#FF6B57"/><text x="90" y="390" font-family="Cabinet Grotesk, Inter, sans-serif" font-size="64" font-weight="700" fill="#A3A9C7">Prompt<tspan fill="#FF6B57">Flow</tspan></text><text x="90" y="434" font-family="Inter, sans-serif" font-size="24" fill="#6E7495">Organize. Create. Collaborate with AI.</text><rect x="760" y="120" width="340" height="340" rx="20" fill="#1A1E2B" fill-opacity="0.9" stroke="#262B3D" stroke-width="1.5"/><rect x="790" y="160" width="260" height="12" rx="6" fill="#6E7495" opacity="0.45"/><rect x="790" y="200" width="220" height="12" rx="6" fill="#FF6B57" opacity="1"/><rect x="790" y="240" width="260" height="12" rx="6" fill="#6E7495" opacity="0.45"/></svg>
